<svg width="579" height="436" viewBox="0 0 579 436" fill="none" xmlns="http://www.w3.org/2000/svg">
<path fill-rule="evenodd" clip-rule="evenodd" d="M266.594 133.222C304.048 124.3 345.749 138.054 383.945 186.613C387.858 191.587 387.019 198.843 382.072 202.819C377.125 206.794 369.942 205.985 366.03 201.01C331.85 157.558 298.508 149.286 271.732 155.665C243.773 162.325 219.426 185.732 205.93 212.281L205.929 212.283C197.856 228.155 186.086 242.119 173.415 254.86C164.004 264.324 153.666 273.519 143.687 282.394C140.324 285.385 137.002 288.34 133.77 291.256C107.09 315.331 86.5527 337.013 82.4135 363.005C81.4115 369.298 75.5509 373.604 69.3234 372.625C63.096 371.645 58.8599 365.75 59.8619 359.458C65.4702 324.24 92.6798 297.483 118.596 274.097C122.11 270.927 125.61 267.814 129.077 264.73C138.905 255.987 148.47 247.48 157.338 238.563C169.245 226.589 179.122 214.609 185.621 201.832C201.253 171.082 230.323 141.862 266.594 133.222Z" fill="#621900"/>
<path fill-rule="evenodd" clip-rule="evenodd" d="M175.827 177.399C215.503 107.021 315.249 105.736 372.526 178.746C376.541 183.864 375.724 191.404 370.701 195.586C365.678 199.768 358.351 199.009 354.336 193.89C304.463 130.318 225.237 137.275 195.944 189.236L195.943 189.238C187.073 204.965 177.282 219.322 167.561 233.577C137.361 277.86 107.837 321.152 108.706 401.436C108.778 408.044 103.623 413.518 97.1927 413.662C90.7623 413.806 85.4913 408.566 85.4197 401.957C84.4584 313.21 119.467 262.06 150.465 216.769C159.61 203.408 168.405 190.557 175.826 177.401" fill="#621900"/>
<path d="M463.813 296.707L458.646 286.003C458.673 285.598 458.693 285.191 458.693 284.782C458.693 272.649 446.076 261.467 424.849 252.513V259.958C422.779 259.137 420.624 258.337 418.379 257.564V254.094C388.042 243.153 342.881 236.211 292.434 236.211C248.359 236.211 208.314 241.51 178.668 250.145V262.236H178.667V247.602C148.294 257.254 129.463 270.663 129.463 285.489C129.463 287.826 129.934 290.128 130.84 292.386L127.746 297.894C127.746 297.894 125.267 301.109 129.632 307.893C133.482 313.876 152.766 337.293 162.944 349.556C167.316 355.842 170.281 359.715 170.54 359.34C170.949 358.747 167.822 346.944 159.14 333.477C155.088 326.245 150.25 316.663 147.346 309.585C155.453 314.717 203.088 338.703 300.252 338.606C399.553 338.506 443.692 307.423 448.536 303.192C446.843 309.993 441.059 323.751 436.446 333.427C428.868 347.266 426.122 359.313 426.475 359.909C426.699 360.285 429.285 356.296 433.099 349.832C441.973 337.187 458.788 313.048 462.148 306.898C465.956 299.928 463.813 296.707 463.813 296.707Z" fill="#F74C00"/>
<path d="M494.728 295.864L460.629 270.975C460.308 269.868 459.988 268.76 459.657 267.661L470.858 251.584C472.001 249.948 472.232 247.822 471.489 245.958C470.745 244.102 469.119 242.771 467.196 242.446L448.258 239.261C447.523 237.777 446.754 236.316 445.982 234.866L453.94 216.815C454.757 214.977 454.586 212.84 453.5 211.171C452.419 209.495 450.584 208.515 448.628 208.591L429.407 209.283C428.412 207.999 427.401 206.727 426.369 205.478L430.787 186.13C431.234 184.166 430.669 182.109 429.288 180.682C427.915 179.26 425.919 178.671 424.022 179.132L405.3 183.693C404.088 182.631 402.856 181.584 401.609 180.556L402.283 160.694C402.355 158.684 401.409 156.773 399.785 155.657C398.162 154.534 396.102 154.366 394.326 155.2L376.861 163.427C375.455 162.628 374.04 161.836 372.61 161.07L369.524 141.497C369.211 139.514 367.923 137.83 366.12 137.06C364.322 136.287 362.263 136.538 360.685 137.715L345.113 149.291C343.579 148.787 342.039 148.303 340.481 147.84L333.769 129.28C333.087 127.388 331.513 125.998 329.593 125.607C327.681 125.22 325.713 125.876 324.387 127.345L311.279 141.874C309.696 141.694 308.109 141.529 306.519 141.393L296.399 124.497C295.374 122.786 293.563 121.744 291.611 121.744C289.665 121.744 287.851 122.786 286.833 124.497L276.71 141.393C275.119 141.529 273.526 141.694 271.945 141.874L258.837 127.345C257.509 125.876 255.535 125.22 253.627 125.607C251.711 126.003 250.134 127.388 249.456 129.28L242.739 147.84C241.182 148.303 239.642 148.79 238.106 149.291L222.539 137.715C220.956 136.533 218.896 136.283 217.095 137.06C215.298 137.83 214.006 139.514 213.694 141.497L210.606 161.07C209.178 161.836 207.763 162.623 206.353 163.427L188.89 155.2C187.116 154.362 185.046 154.534 183.43 155.657C181.809 156.773 180.86 158.684 180.933 160.694L181.604 180.556C180.361 181.584 179.131 182.631 177.912 183.693L159.194 179.132C157.293 178.675 155.299 179.26 153.923 180.682C152.539 182.109 151.978 184.166 152.423 186.13L156.831 205.478C155.809 206.732 154.797 207.999 153.804 209.283L134.583 208.591C132.644 208.534 130.792 209.495 129.708 211.171C128.622 212.84 128.458 214.977 129.266 216.815L137.229 234.866C136.456 236.316 135.688 237.777 134.947 239.261L116.01 242.446C114.085 242.767 112.464 244.096 111.715 245.958C110.972 247.822 111.213 249.948 112.348 251.584L123.551 267.661C123.465 267.945 123.385 268.231 123.299 268.516L91.6262 301.854C91.6262 301.854 86.7715 305.623 93.8382 314.482C100.07 322.297 132.067 353.275 148.965 369.504C156.102 377.744 160.992 382.846 161.503 382.404C162.309 381.704 158.077 366.713 144.019 349.125C133.182 333.344 119.117 309.074 122.415 306.276C122.415 306.276 126.167 301.558 133.694 298.161C133.409 297.945 133.969 298.379 133.694 298.161C133.694 298.161 292.535 370.765 439.875 299.389C456.707 296.398 466.896 305.332 466.896 305.332C470.41 307.35 461.311 332.307 453.828 348.827C443.652 367.586 442.16 382.223 443.022 382.731C443.567 383.053 447.27 377.47 452.551 368.585C465.583 350.592 490.219 316.29 494.728 307.958C499.84 298.511 494.728 295.864 494.728 295.864Z" fill="#F74C00"/>
<path d="M426.212 252.923C426.212 252.923 444.976 265.851 487.167 259.739L496.231 254.81C496.231 254.81 487.202 189.98 563.92 208.243C563.92 208.243 552.648 212.641 530.003 245.515C530.003 245.515 551.892 252.656 578.277 228.465C578.277 228.465 578.238 280.965 501.806 272.17C501.806 272.17 446.972 293.024 415 262.75L426.212 252.923Z" fill="#F74C00"/>
<path d="M352.652 258.616C352.652 258.616 336.843 241.305 321.033 258.616C321.033 258.616 308.611 281.698 321.033 293.238C321.033 293.238 341.359 309.395 352.652 293.238C352.652 293.238 366.202 280.543 352.652 258.616Z" fill="black"/>
<path d="M352.547 265.038C352.547 271.778 348.574 277.243 343.673 277.243C338.773 277.243 334.8 271.778 334.8 265.038C334.8 258.297 338.773 252.832 343.673 252.832C348.574 252.832 352.547 258.297 352.547 265.038Z" fill="white"/>
<path d="M277.321 253.89C277.321 253.89 250.204 241.883 242.802 268.684C242.802 268.684 235.048 299.921 265.072 301.684C265.072 301.684 303.357 294.31 277.321 253.89Z" fill="black"/>
<path d="M277.303 265.48C277.303 272.431 273.205 278.068 268.151 278.068C263.098 278.068 259 272.431 259 265.48C259 258.527 263.098 252.891 268.151 252.891C273.205 252.891 277.303 258.527 277.303 265.48Z" fill="white"/>
<path d="M285.717 312.605L320.3 309.83C320.3 309.83 319.128 315.397 314.616 319.576C314.616 319.576 302.721 332.618 289.074 318.491C289.074 318.491 286.841 316.082 285.717 312.605Z" fill="black"/>
<path d="M130.149 269.683C129.896 269.815 129.657 269.962 129.42 270.111C118.28 273.03 86.4863 280.31 72.9237 272.326C72.9237 272.326 88.2854 209.86 15.1447 213.124L46.6839 256.965C46.6839 256.965 22.2177 254.286 4.58358 229.978C4.58358 229.978 -22.916 285.069 56.7999 282.645C56.7999 282.645 73.8821 301.348 138.38 289.786L138.335 289.6C138.947 289.413 139.551 289.177 140.139 288.871C145.381 286.141 147.396 279.634 144.636 274.334C141.878 269.036 135.391 266.953 130.149 269.683Z" fill="#F74C00"/>
<path fill-rule="evenodd" clip-rule="evenodd" d="M297.407 144.247C297.509 151.112 291.877 156.734 284.826 156.805C255.285 157.102 225.283 162.719 203.5 187.527C181.353 212.75 165.161 260.647 171.386 351.891C172.562 369.137 168.201 386.027 163.908 398.115C161.726 404.259 159.476 409.397 157.76 413.024C156.9 414.842 156.168 416.291 155.638 417.31C155.373 417.819 155.158 418.222 155.002 418.51C154.924 418.654 154.861 418.769 154.814 418.855L154.755 418.962L154.734 418.998L154.726 419.012L154.723 419.018C154.722 419.021 154.72 419.024 143.51 413.029L154.72 419.024C151.346 425.038 143.592 427.229 137.4 423.919C131.212 420.61 128.927 413.058 132.293 407.046C132.293 407.045 132.294 407.044 132.295 407.042C132.295 407.042 132.296 407.041 132.296 407.04L132.299 407.035M132.299 407.035L132.304 407.026C132.321 406.994 132.354 406.934 132.401 406.847C132.496 406.672 132.648 406.388 132.848 406.003C133.249 405.232 133.843 404.058 134.561 402.542C136 399.501 137.915 395.129 139.771 389.903C143.555 379.249 146.761 365.956 145.907 353.435C139.52 259.813 155.481 203.877 184.061 171.327C213.005 138.364 252.306 132.269 284.455 131.946C291.505 131.875 297.304 137.383 297.407 144.247" fill="#621900"/>
<path d="M278 127.744C389.958 130.27 424.959 158.563 455.5 264.25C462.989 290.165 480.062 309.116 488 333.744" stroke="#621900" stroke-width="13" stroke-linecap="round"/>
<path d="M492.753 296.288L459.968 271.518C459.651 270.416 458.656 269.317 458.329 268.223L441.937 253.744C435.818 266.819 438.658 299.787 438.658 299.787L466.525 305.711C470 307.72 460.812 332.556 453.411 348.996C443.346 367.665 441.084 382.226 441.937 382.731C442.476 383.052 446.548 377.502 451.772 368.66C464.662 350.753 488.293 316.608 492.753 308.316C497.809 298.915 492.753 296.288 492.753 296.288Z" fill="#F74C00"/>
<path fill-rule="evenodd" clip-rule="evenodd" d="M277.612 151.552C278.5 158.36 284.885 163.111 291.872 162.165C321.147 158.199 351.645 159.431 376.778 180.839C402.331 202.605 425.26 247.666 432.257 338.855C433.58 356.089 440.331 372.174 446.322 383.517C449.367 389.282 452.334 394.042 454.556 397.384C455.669 399.058 456.602 400.387 457.273 401.318C457.609 401.784 457.88 402.152 458.075 402.414C458.173 402.546 458.253 402.651 458.312 402.729L458.386 402.826L458.411 402.859L458.425 402.877C458.427 402.88 458.429 402.882 468.658 395.334L458.429 402.882C462.635 408.347 470.624 409.397 476.274 405.229C481.92 401.063 483.092 393.26 478.895 387.796C478.894 387.795 478.893 387.794 478.892 387.793C478.891 387.792 478.891 387.791 478.89 387.79L478.887 387.786M478.887 387.786L478.881 387.778C478.859 387.749 478.818 387.694 478.758 387.615C478.64 387.455 478.448 387.196 478.195 386.844C477.687 386.139 476.93 385.063 476.001 383.666C474.139 380.864 471.613 376.814 469.022 371.91C463.742 361.913 458.652 349.221 457.692 336.708C450.512 243.144 426.653 190.093 393.678 162.005C360.283 133.56 320.514 133.196 288.654 137.512C281.667 138.458 276.723 144.744 277.612 151.552" fill="#621900"/>
<path d="M492.762 295.744C480.029 298.982 480.029 298.982 466.647 305.226C470.108 307.248 460.959 332.24 453.589 348.784C443.567 367.57 441.315 382.222 442.164 382.731C442.701 383.053 446.756 377.469 451.957 368.571C464.792 350.551 488.322 316.192 492.762 307.848C497.797 298.387 492.762 295.744 492.762 295.744Z" fill="#F74C00"/>
<path d="M144.5 328.244C79.1203 325.182 34.0121 119.288 184.293 43.1734C399.5 -65.8255 549 123.744 448 238.244C447.093 239.328 444 243.244 442 244.744C442 244.744 438.5 239.244 436.5 236.744C440.815 205.442 350.562 170.577 309.9 159.322C277.235 150.281 228.78 187.336 198.507 218.244C188.379 228.584 183.286 235.236 178.5 242.244C153.653 283.063 148 311.744 144.5 328.244Z" fill="#C4242A"/>
<path d="M144 328.244C78.7209 325.187 34.09 119.291 184.145 43.1665C345.5 -38.6909 470.774 46.8117 479.614 145.79C479.614 145.79 403.092 44.829 254.112 97.9963C132 145.79 141 274.744 144 328.244Z" fill="#5F9911"/>
<path d="M245 117.744C351.146 69.0514 451.54 115.663 479.605 145.998C480.832 119.794 461 82.2439 447.483 70.2776C421.213 52.3961 356.393 4.64043 220.997 62.5244C85.6015 120.408 106.865 265.399 119.5 300.244C125.12 315.744 131 330.744 144.5 328.244C144.5 242.49 155.954 158.592 245 117.744Z" fill="#FFB300"/>
<path d="M342.628 176.332C259.214 167.458 169.896 251.266 168 261.244C168 222.244 225.676 133.744 335 133.744C463.67 133.744 458.875 210.053 436.409 236.674C427.817 218.6 398.533 182.28 342.628 176.332Z" fill="black"/>
</svg>
